<?xml version="1.0" encoding="UTF-8" standalone="no"?>
<!-- Generator: Adobe Illustrator 17.0.1, SVG Export Plug-In . SVG Version: 6.00 Build 0)  -->

<svg
   xmlns:dc="http://purl.org/dc/elements/1.1/"
   xmlns:cc="http://creativecommons.org/ns#"
   xmlns:rdf="http://www.w3.org/1999/02/22-rdf-syntax-ns#"
   xmlns:svg="http://www.w3.org/2000/svg"
   xmlns="http://www.w3.org/2000/svg"
   xmlns:sodipodi="http://sodipodi.sourceforge.net/DTD/sodipodi-0.dtd"
   xmlns:inkscape="http://www.inkscape.org/namespaces/inkscape"
   version="1.1"
   x="0px"
   y="0px"
   width="86px"
   height="86px"
   viewBox="0 0 86 86"
   enable-background="new 0 0 86 86"
   xml:space="preserve"
   id="svg4201"
   inkscape:version="0.91 r13725"
   sodipodi:docname="harbour-oldiesradio.svg"><metadata
     id="metadata4226"><rdf:RDF><cc:Work
         rdf:about=""><dc:format>image/svg+xml</dc:format><dc:type
           rdf:resource="http://purl.org/dc/dcmitype/StillImage" /><dc:title></dc:title></cc:Work></rdf:RDF></metadata><defs
     id="defs4224"><linearGradient
       y2="0.71689999"
       x2="85.283096"
       y1="85.283096"
       x1="0.71689999"
       gradientUnits="userSpaceOnUse"
       id="SVGID_1_"><stop
         id="stop4206"
         style="stop-color:#ca32b2;stop-opacity:1"
         offset="0" /><stop
         id="stop4208"
         style="stop-color:#9f75bc;stop-opacity:1"
         offset="1" /></linearGradient></defs><sodipodi:namedview
     pagecolor="#ffffff"
     bordercolor="#666666"
     borderopacity="1"
     objecttolerance="10"
     gridtolerance="10"
     guidetolerance="10"
     inkscape:pageopacity="0"
     inkscape:pageshadow="2"
     inkscape:window-width="1229"
     inkscape:window-height="1000"
     id="namedview4222"
     showgrid="false"
     inkscape:zoom="1.578657"
     inkscape:cx="105.88831"
     inkscape:cy="61.177403"
     inkscape:window-x="51"
     inkscape:window-y="24"
     inkscape:window-maximized="1"
     inkscape:current-layer="svg4201" /><g
     id="Layer_2"
     display="none" /><path
     style="fill:url(#SVGID_1_)"
     d="M 43 0.30078125 C 19.417 0.30078125 0.30078125 19.418 0.30078125 43 L 0.30078125 84.277344 C 0.30078125 85.063344 0.93665625 85.699219 1.7226562 85.699219 L 43 85.699219 C 66.583 85.699219 85.699219 66.582 85.699219 43 L 85.699219 1.7226562 C 85.699219 0.93665625 85.063344 0.30078125 84.277344 0.30078125 L 43 0.30078125 z M 28.3125 15.666016 L 32.785156 15.666016 L 43.898438 44.826172 L 39.796875 44.826172 L 37.140625 37.345703 L 23.996094 37.345703 L 21.339844 44.826172 L 17.179688 44.826172 L 28.3125 15.666016 z M 48.136719 15.666016 L 58.214844 15.666016 C 61.222656 15.666016 63.540365 16.291016 65.167969 17.541016 C 66.795573 18.791016 67.609375 20.568359 67.609375 22.873047 C 67.609375 24.656901 67.192708 26.076172 66.359375 27.130859 C 65.526042 28.185547 64.302083 28.843099 62.6875 29.103516 C 64.627604 29.520182 66.13151 30.392578 67.199219 31.720703 C 68.279948 33.035807 68.820312 34.682943 68.820312 36.662109 C 68.820312 39.266276 67.934896 41.277995 66.164062 42.697266 C 64.393229 44.116536 61.873698 44.826172 58.605469 44.826172 L 48.136719 44.826172 L 48.136719 15.666016 z M 52.082031 18.908203 L 52.082031 27.697266 L 57.921875 27.697266 C 59.848958 27.697266 61.28125 27.339193 62.21875 26.623047 C 63.169271 25.89388 63.644531 24.787109 63.644531 23.302734 C 63.644531 21.83138 63.169271 20.73112 62.21875 20.001953 C 61.28125 19.272786 59.848958 18.908203 57.921875 18.908203 L 52.082031 18.908203 z M 30.539062 19.552734 L 25.1875 34.064453 L 35.910156 34.064453 L 30.539062 19.552734 z M 52.082031 30.900391 L 52.082031 41.583984 L 58.410156 41.583984 C 60.532552 41.583984 62.101562 41.147786 63.117188 40.275391 C 64.145833 39.389974 64.660156 38.042318 64.660156 36.232422 C 64.660156 34.409505 64.145833 33.068359 63.117188 32.208984 C 62.101562 31.336589 60.532552 30.900391 58.410156 30.900391 L 52.082031 30.900391 z M 47.912109 45.943359 L 50.273438 45.943359 L 50.273438 65.923828 L 47.912109 65.923828 L 47.912109 63.765625 C 47.415617 64.621647 46.785297 65.260237 46.023438 65.679688 C 45.270138 66.090578 44.362249 66.296875 43.300781 66.296875 C 41.563056 66.296875 40.14649 65.603553 39.050781 64.216797 C 37.963633 62.830041 37.419922 61.005992 37.419922 58.746094 C 37.419922 56.486195 37.963633 54.662146 39.050781 53.275391 C 40.14649 51.888635 41.563056 51.195312 43.300781 51.195312 C 44.362249 51.195312 45.270138 51.404768 46.023438 51.824219 C 46.785297 52.235109 47.415617 52.868587 47.912109 53.724609 L 47.912109 45.943359 z M 55.140625 45.943359 L 57.503906 45.943359 L 57.503906 48.935547 L 55.140625 48.935547 L 55.140625 45.943359 z M 18.609375 51.195312 C 18.772019 51.195312 18.951552 51.208694 19.148438 51.234375 C 19.345323 51.251495 19.565001 51.281418 19.804688 51.324219 L 19.816406 53.751953 C 19.551039 53.597869 19.260088 53.486451 18.943359 53.417969 C 18.635191 53.340927 18.292665 53.300781 17.916016 53.300781 C 16.580621 53.300781 15.553043 53.738186 14.833984 54.611328 C 14.123486 55.47591 13.769531 56.721214 13.769531 58.347656 L 13.769531 65.923828 L 11.392578 65.923828 L 11.392578 51.542969 L 13.769531 51.542969 L 13.769531 53.777344 C 14.266024 52.904201 14.910931 52.257341 15.707031 51.837891 C 16.503132 51.40988 17.470866 51.195312 18.609375 51.195312 z M 27.367188 51.195312 C 29.447321 51.195312 31.000117 51.735865 32.027344 52.814453 C 33.05457 53.893041 33.568359 55.527333 33.568359 57.71875 L 33.568359 65.923828 L 31.207031 65.923828 L 31.207031 63.740234 C 30.667737 64.613377 29.994114 65.260237 29.189453 65.679688 C 28.384792 66.090578 27.400518 66.296875 26.236328 66.296875 C 24.76397 66.296875 23.591893 65.884281 22.71875 65.0625 C 21.854168 64.232159 21.421875 63.125037 21.421875 61.738281 C 21.421875 60.120399 21.960475 58.899906 23.039062 58.078125 C 24.126211 57.256344 25.743963 56.845703 27.892578 56.845703 L 31.207031 56.845703 L 31.207031 56.615234 C 31.207031 55.528086 30.846012 54.688312 30.126953 54.097656 C 29.416455 53.498441 28.41564 53.199219 27.123047 53.199219 C 26.301266 53.199219 25.501636 53.297256 24.722656 53.494141 C 23.943676 53.691026 23.193668 53.987089 22.474609 54.380859 L 22.474609 52.197266 C 23.339192 51.863417 24.178967 51.615769 24.992188 51.453125 C 25.805408 51.281921 26.596768 51.195312 27.367188 51.195312 z M 68.005859 51.195312 C 70.060312 51.195312 71.674906 51.863824 72.847656 53.199219 C 74.020407 54.534613 74.607422 56.383473 74.607422 58.746094 C 74.607422 61.100155 74.020407 62.949014 72.847656 64.292969 C 71.674906 65.628363 70.060312 66.296875 68.005859 66.296875 C 65.942846 66.296875 64.325094 65.628363 63.152344 64.292969 C 61.988154 62.949014 61.40625 61.100155 61.40625 58.746094 C 61.40625 56.383473 61.988154 54.534613 63.152344 53.199219 C 64.325094 51.863824 65.942846 51.195312 68.005859 51.195312 z M 55.140625 51.542969 L 57.503906 51.542969 L 57.503906 65.923828 L 55.140625 65.923828 L 55.140625 51.542969 z M 43.878906 53.173828 C 42.629114 53.173828 41.64484 53.669124 40.925781 54.662109 C 40.215283 55.646535 39.861328 57.008369 39.861328 58.746094 C 39.861328 60.483819 40.215283 61.848811 40.925781 62.841797 C 41.64484 63.826222 42.629114 64.318359 43.878906 64.318359 C 45.128699 64.318359 46.112973 63.826222 46.832031 62.841797 C 47.55109 61.848811 47.912109 60.483819 47.912109 58.746094 C 47.912109 57.008369 47.55109 55.646535 46.832031 54.662109 C 46.112973 53.669124 45.128699 53.173828 43.878906 53.173828 z M 68.005859 53.199219 C 66.738947 53.199219 65.738132 53.694514 65.001953 54.6875 C 64.265774 55.671925 63.898438 57.025489 63.898438 58.746094 C 63.898438 60.466698 64.260662 61.823421 64.988281 62.816406 C 65.72446 63.800832 66.730386 64.292969 68.005859 64.292969 C 69.264212 64.292969 70.261868 63.79572 70.998047 62.802734 C 71.734226 61.809749 72.103516 60.458138 72.103516 58.746094 C 72.103516 57.04261 71.734226 55.694158 70.998047 54.701172 C 70.261868 53.699626 69.264212 53.199219 68.005859 53.199219 z M 28.855469 58.695312 C 26.946539 58.695312 25.624851 58.913038 24.888672 59.349609 C 24.152493 59.786181 23.785156 60.531077 23.785156 61.583984 C 23.785156 62.422886 24.057615 63.089445 24.605469 63.585938 C 25.161883 64.07387 25.91505 64.318359 26.865234 64.318359 C 28.174948 64.318359 29.224178 63.856144 30.011719 62.931641 C 30.807819 61.998577 31.207031 60.761543 31.207031 59.220703 L 31.207031 58.695312 L 28.855469 58.695312 z "
     id="path4210" /><g
     inkscape:groupmode="layer"
     id="layer1"
     inkscape:label="Layer 1" /><g
     inkscape:groupmode="layer"
     id="layer2"
     inkscape:label="Layer 2" /></svg>